<svg width="279" height="74" viewBox="0 0 279 74" fill="none" xmlns="http://www.w3.org/2000/svg">
<g clip-path="url(#clip0_9521_19043)">
<g clip-path="url(#clip1_9521_19043)">
<path d="M28.5958 22.4194L5.39829 0.638031H0V73.4556H5.39829L41.6288 39.4397L51.7955 48.9865H57.1342V0.638031H51.7955L28.5958 22.4194ZM53.7233 4.21948V45.4028H53.0977L31.1662 24.8123L53.0977 4.21948H53.7233ZM3.40452 69.8741V4.21948H4.08968L39.0605 37.0468L4.09606 69.8741H3.40452Z" fill="black"/>
<path d="M125.225 0.638031V4.27533H142.103V48.9306H145.62V4.27533H162.5V0.638031H125.225Z" fill="black"/>
<path d="M71.8083 0.638031H68.291V48.9887H71.8083V0.638031Z" fill="black"/>
<path d="M103.625 3.72765C106.942 3.72823 110.207 4.59072 113.128 6.23819C116.05 7.88565 118.539 10.2669 120.371 13.1694L120.514 13.3929H124.588L124.186 12.6422C122.534 9.55496 120.271 6.87535 117.55 4.78388C114.829 2.69241 111.712 1.23766 108.41 0.517645C105.108 -0.202368 101.697 -0.170921 98.4078 0.609867C95.1184 1.39066 92.0265 2.90265 89.3405 5.04398C86.6545 7.18531 84.4368 9.90623 82.8368 13.0234C81.2368 16.1406 80.2916 19.5817 80.065 23.1148C79.8385 26.6479 80.3357 30.1909 81.5232 33.5052C82.7107 36.8195 84.561 39.8281 86.9493 42.3282C89.5246 45.0276 92.6595 47.0653 96.1089 48.2821C99.5583 49.499 103.229 49.862 106.834 49.3428C110.439 48.8237 113.881 47.4364 116.891 45.2894C119.902 43.1424 122.398 40.2938 124.186 36.9661L124.588 36.2154H120.507L120.365 36.4388C118.449 39.4816 115.814 41.9506 112.718 43.6044C109.622 45.2582 106.17 46.0404 102.7 45.8744C99.2296 45.7084 95.8597 44.6 92.9195 42.6575C89.9792 40.7149 87.5693 38.0047 85.925 34.7917C84.2808 31.5786 83.4585 27.9726 83.5385 24.3261C83.6186 20.6795 84.5982 17.1171 86.3818 13.987C88.1653 10.8569 90.6916 8.26618 93.714 6.46796C96.7363 4.66974 100.151 3.72555 103.625 3.72765Z" fill="black"/>
<path d="M176.557 10.4097V0.458496H177.129V5.1213H184.025V0.458496H184.6V10.4097H184.025V5.64858H177.129V10.4097H176.557Z" fill="black"/>
<path d="M188.101 6.91374C188.627 6.55478 189.363 6.37455 190.309 6.37306H192.863V5.57768C192.869 5.3116 192.809 5.04839 192.69 4.81354C192.571 4.5787 192.396 4.38016 192.182 4.23715C191.728 3.91543 191.094 3.75456 190.282 3.75456C189.316 3.75456 188.556 4.03905 188.003 4.60803L187.63 4.22375C188.269 3.56093 189.152 3.22952 190.282 3.22952C191.256 3.22952 192.021 3.43805 192.575 3.8551C192.842 4.04686 193.058 4.30641 193.204 4.60957C193.349 4.91272 193.419 5.24962 193.407 5.58885V10.4103H192.863V9.42947C192.27 10.14 191.348 10.4952 190.096 10.4952C189.245 10.4952 188.569 10.3127 188.067 9.94781C187.828 9.78485 187.633 9.56007 187.501 9.29514C187.369 9.03021 187.305 8.73407 187.313 8.43525C187.306 8.13147 187.375 7.83107 187.513 7.56407C187.652 7.29707 187.854 7.07282 188.101 6.91374ZM187.856 8.41961C187.854 8.65221 187.912 8.88105 188.024 9.08145C188.137 9.28186 188.299 9.44622 188.494 9.55682C189.005 9.85607 189.586 9.99924 190.171 9.97015C190.852 10.0001 191.527 9.82242 192.114 9.45852C192.616 9.11594 192.867 8.68473 192.867 8.16491V6.87129H190.314C189.548 6.87129 188.947 7.01056 188.513 7.28909C188.316 7.39666 188.15 7.55885 188.035 7.75812C187.919 7.95738 187.857 8.18613 187.856 8.41961Z" fill="black"/>
<path d="M196.33 10.4103V3.30322H196.875V9.89863H202.022V3.30322H202.569V9.89863H203.858V12.5462H203.314V10.4103H196.33Z" fill="black"/>
<path d="M205.621 1.48681C205.619 1.41256 205.632 1.33865 205.659 1.27006C205.686 1.20147 205.727 1.13977 205.779 1.08911C205.89 0.988303 206.033 0.932861 206.18 0.932861C206.327 0.932861 206.469 0.988303 206.581 1.08911C206.633 1.13977 206.674 1.20147 206.701 1.27006C206.728 1.33865 206.741 1.41256 206.739 1.48681C206.741 1.56109 206.728 1.63508 206.701 1.70372C206.674 1.77236 206.633 1.83402 206.581 1.8845C206.469 1.98531 206.327 2.04075 206.18 2.04075C206.033 2.04075 205.89 1.98531 205.779 1.8845C205.727 1.83402 205.686 1.77236 205.659 1.70372C205.632 1.63508 205.619 1.56109 205.621 1.48681Z" fill="black"/>
<path d="M206.453 3.30319H205.908V10.4102H206.453V3.30319Z" fill="black"/>
<path d="M209.863 4.24121C210.193 3.90144 210.586 3.63558 211.017 3.4597C211.448 3.28383 211.909 3.20158 212.371 3.21794C212.838 3.20131 213.303 3.284 213.738 3.46101C214.173 3.63802 214.57 3.9057 214.904 4.24792C215.232 4.58684 215.49 4.99346 215.661 5.44218C215.833 5.89091 215.914 6.37202 215.899 6.85525C215.914 7.33829 215.834 7.81938 215.664 8.2684C215.494 8.71743 215.237 9.12472 214.91 9.46481C214.221 10.1274 213.321 10.4949 212.386 10.4949C211.452 10.4949 210.552 10.1274 209.863 9.46481C209.535 9.1253 209.277 8.71826 209.105 8.26921C208.934 7.82016 208.853 7.33878 208.867 6.85525C208.852 6.37099 208.933 5.8888 209.105 5.43895C209.276 4.9891 209.534 4.58132 209.863 4.24121ZM209.405 6.85525C209.405 7.68482 209.719 8.48041 210.278 9.06701C210.836 9.6536 211.594 9.98315 212.384 9.98315C213.174 9.98315 213.932 9.6536 214.491 9.06701C215.049 8.48041 215.363 7.68482 215.363 6.85525C215.375 6.44143 215.306 6.02947 215.159 5.64508C215.013 5.26068 214.792 4.91209 214.512 4.62103C214.232 4.33116 213.9 4.10374 213.534 3.95246C213.168 3.80117 212.777 3.72916 212.384 3.74075C211.992 3.72806 211.601 3.79987 211.235 3.95176C210.87 4.10365 210.539 4.3324 210.261 4.62394C209.983 4.91547 209.765 5.26363 209.62 5.64698C209.475 6.03032 209.406 6.44075 209.418 6.85301L209.405 6.85525Z" fill="black"/>
<path d="M218.839 3.30319V6.47131H224.016V3.30319H224.56V10.4102H224.016V6.98518H218.839V10.4102H218.294V3.30319H218.839Z" fill="black"/>
<path d="M227.914 6.91374C228.44 6.55478 229.176 6.37455 230.123 6.37306H232.676V5.57768C232.682 5.3116 232.622 5.04839 232.503 4.81354C232.384 4.5787 232.209 4.38016 231.995 4.23715C231.543 3.91543 230.909 3.75456 230.095 3.75456C229.131 3.75456 228.369 4.03831 227.816 4.60803L227.444 4.22375C228.085 3.56093 228.969 3.22952 230.095 3.22952C231.072 3.22952 231.837 3.43805 232.389 3.8551C232.655 4.04686 232.872 4.30641 233.017 4.60957C233.163 4.91272 233.233 5.24962 233.221 5.58885V10.4103H232.676V9.42947C232.084 10.14 231.162 10.4952 229.91 10.4952C229.059 10.4952 228.382 10.3127 227.88 9.94781C227.642 9.78442 227.447 9.5595 227.316 9.29462C227.184 9.02975 227.12 8.73382 227.129 8.43525C227.121 8.13169 227.19 7.83143 227.328 7.56445C227.466 7.29746 227.668 7.0731 227.914 6.91374ZM227.678 8.41961C227.675 8.65226 227.733 8.8812 227.846 9.08165C227.958 9.28209 228.121 9.44641 228.316 9.55682C228.828 9.85552 229.408 9.99865 229.993 9.97015C230.674 10.0005 231.349 9.82278 231.935 9.45852C232.438 9.11594 232.689 8.68473 232.689 8.16491V6.87129H230.135C229.369 6.87129 228.771 7.00982 228.335 7.28909C228.138 7.39647 227.972 7.55861 227.856 7.75792C227.74 7.95723 227.678 8.18608 227.678 8.41961Z" fill="black"/>
<path d="M235.227 10.2829V9.7422C235.454 9.8744 235.711 9.94287 235.971 9.94105C236.128 9.94304 236.282 9.89697 236.414 9.80847C236.547 9.71998 236.651 9.59291 236.716 9.44282C236.888 9.11215 237.012 8.54913 237.082 7.75152C237.152 6.9539 237.191 5.78541 237.191 4.24156V3.30319H242.538V10.4102H241.993V3.79919H237.737V4.24603C237.754 5.52223 237.704 6.79842 237.586 8.06877C237.486 8.96246 237.316 9.57464 237.078 9.94552C236.964 10.1251 236.808 10.2706 236.624 10.3677C236.441 10.4648 236.236 10.5103 236.031 10.4996C235.749 10.5077 235.47 10.4326 235.227 10.2829Z" fill="black"/>
<path d="M245.463 10.4103V3.30322H246.008V6.31718H248.904C249.467 6.29545 250.017 6.50362 250.438 6.89808C250.633 7.08251 250.787 7.30893 250.891 7.56187C250.995 7.81481 251.046 8.08832 251.04 8.36372C251.046 8.63879 250.995 8.91196 250.891 9.16454C250.787 9.41711 250.633 9.64313 250.438 9.82713C250.018 10.223 249.468 10.4321 248.904 10.4103H245.463ZM246.008 9.89863H248.859C249.289 9.91563 249.71 9.76075 250.036 9.46519C250.18 9.32481 250.296 9.15448 250.375 8.96491C250.454 8.77535 250.495 8.57065 250.495 8.36372C250.495 8.15679 250.454 7.9521 250.375 7.76253C250.296 7.57296 250.18 7.40263 250.036 7.26225C249.71 6.96531 249.289 6.81023 248.859 6.82882H246.008V9.89863Z" fill="black"/>
<path d="M253.949 3.30319V6.47131H259.126V3.30319H259.671V10.4102H259.126V6.98518H253.949V10.4102H253.404V3.30319H253.949Z" fill="black"/>
<path d="M262.596 10.4102V3.30319H263.14V9.59921L268.388 3.30319H268.934V10.4102H268.388V4.11198L263.14 10.4102H262.596Z" fill="black"/>
<path d="M272.401 3.3033V9.59933L277.648 3.3033H278.193V10.4103H277.648V4.11209L272.401 10.4103H271.856V3.3033H272.401ZM272.999 0.53064H273.501C273.499 0.717908 273.539 0.903105 273.616 1.07198C273.693 1.24086 273.806 1.38891 273.946 1.50476C274.257 1.77133 274.649 1.91028 275.05 1.89575C275.449 1.91056 275.839 1.77146 276.146 1.50476C276.285 1.3879 276.396 1.23948 276.472 1.07072C276.548 0.90196 276.587 0.717277 276.584 0.53064H277.087C277.091 0.782818 277.041 1.03277 276.94 1.26181C276.84 1.49085 276.691 1.69305 276.506 1.8533C276.099 2.21095 275.581 2.39796 275.05 2.37834C274.515 2.39995 273.992 2.21293 273.58 1.8533C273.394 1.69305 273.246 1.49085 273.145 1.26181C273.045 1.03277 272.995 0.782818 272.999 0.53064Z" fill="black"/>
<path d="M176.557 22.5537H177.274L180.357 27.6142L183.453 22.5537H184.155V29.6608H183.595V23.2709L180.557 28.2755H180.155L177.101 23.2709V29.6608H176.557V22.5537Z" fill="black"/>
<path d="M186.12 22.5537H186.68L189.763 29.348L192.672 22.5537H193.231L189.433 31.4236C189.255 31.882 188.968 32.2856 188.601 32.5965C188.28 32.8668 187.881 33.0142 187.469 33.0143C187.199 33.0125 186.932 32.9596 186.68 32.8579V32.3619C186.929 32.4544 187.19 32.5019 187.454 32.5027C188.076 32.5027 188.568 32.0953 188.931 31.2806L189.476 30.0026L186.12 22.5537Z" fill="black"/>
<path d="M194.352 23.3218C195 22.7513 195.874 22.4668 196.975 22.4683C197.826 22.4683 198.512 22.6486 199.033 23.009C199.268 23.1485 199.464 23.3506 199.601 23.5949C199.738 23.8393 199.812 24.1173 199.814 24.4009C199.814 25.1323 199.417 25.6677 198.624 26.0073C199.012 26.1263 199.36 26.3588 199.626 26.6776C199.87 26.9707 200.004 27.3474 200.001 27.7366C199.999 28.03 199.923 28.3176 199.782 28.5708C199.641 28.824 199.439 29.034 199.197 29.1799C198.663 29.5553 197.954 29.7422 197.069 29.7407C195.95 29.7407 195.065 29.457 194.415 28.8895L194.79 28.5052C195.357 28.9788 196.122 29.2157 197.084 29.2157C197.683 29.2455 198.278 29.1001 198.803 28.7956C198.993 28.6914 199.152 28.5353 199.265 28.3438C199.377 28.1523 199.438 27.9325 199.441 27.7076C199.442 27.5075 199.395 27.3104 199.306 27.1336C199.217 26.9567 199.088 26.8055 198.931 26.6932C198.56 26.4127 198.111 26.2697 197.654 26.2866H195.905V25.775H197.469C197.922 25.7921 198.369 25.6575 198.746 25.3907C198.901 25.2875 199.029 25.1451 199.117 24.9764C199.206 24.8077 199.253 24.6183 199.254 24.4255C199.249 24.2074 199.187 23.995 199.074 23.8116C198.962 23.6283 198.803 23.4812 198.616 23.3866C198.111 23.1011 197.542 22.9637 196.969 22.9889C196.003 22.9889 195.252 23.2257 194.718 23.6994L194.352 23.3218Z" fill="black"/>
<path d="M202.852 23.494C203.173 23.157 203.557 22.8923 203.978 22.7164C204.4 22.5404 204.852 22.4568 205.306 22.4707C205.755 22.4606 206.201 22.5439 206.619 22.7157C207.037 22.8874 207.419 23.1444 207.742 23.4717C208.065 23.784 208.321 24.1643 208.494 24.5879C208.667 25.0114 208.753 25.4685 208.746 25.9293C208.751 26.0345 208.741 26.1399 208.717 26.2421H202.408C202.415 26.6477 202.504 27.0471 202.67 27.4136C202.836 27.78 203.074 28.105 203.369 28.3668C203.997 28.9382 204.806 29.2405 205.636 29.2136C206.619 29.2136 207.383 28.9053 207.929 28.2886L208.344 28.6305C207.696 29.3752 206.788 29.7476 205.621 29.7476C204.628 29.785 203.66 29.4129 202.925 28.7109C202.259 28.0278 201.877 27.0956 201.864 26.1181C201.85 25.1406 202.206 24.1972 202.852 23.494ZM202.427 25.7394H208.187C208.129 24.9851 207.801 24.2818 207.27 23.771C206.726 23.2702 206.028 22.994 205.305 22.994C204.582 22.994 203.883 23.2702 203.34 23.771C202.81 24.279 202.483 24.9779 202.423 25.7282L202.427 25.7394Z" fill="black"/>
<path d="M211.599 22.5534V28.8561L216.846 22.5601H217.391V29.6605H216.846V23.3644L211.599 29.6605H211.052V22.5534H211.599ZM212.186 19.7808H212.688C212.686 19.9679 212.724 20.1532 212.801 20.3221C212.878 20.4911 212.991 20.6392 213.131 20.7549C213.442 21.0207 213.834 21.1596 214.235 21.1459C214.634 21.1612 215.025 21.0221 215.333 20.7549C215.47 20.637 215.579 20.4881 215.653 20.3193C215.726 20.1505 215.763 19.9664 215.758 19.7808H216.261C216.265 20.0329 216.215 20.2829 216.114 20.5119C216.014 20.741 215.865 20.9432 215.68 21.1034C215.262 21.4451 214.748 21.6307 214.218 21.6307C213.688 21.6307 213.174 21.4451 212.756 21.1034C212.573 20.9421 212.426 20.7394 212.327 20.5104C212.229 20.2814 212.18 20.032 212.186 19.7808Z" fill="black"/>
<path d="M224.259 20.7369C224.257 20.6627 224.27 20.589 224.297 20.5204C224.324 20.4519 224.365 20.3902 224.416 20.3392C224.528 20.2383 224.671 20.1827 224.819 20.1827C224.966 20.1827 225.109 20.2383 225.221 20.3392C225.271 20.3914 225.31 20.4533 225.337 20.5216C225.364 20.5898 225.378 20.663 225.378 20.7369C225.378 20.8109 225.364 20.884 225.337 20.9523C225.31 21.0205 225.271 21.0825 225.221 21.1346C225.109 21.2356 224.966 21.2911 224.819 21.2911C224.671 21.2911 224.528 21.2356 224.416 21.1346C224.365 21.0838 224.324 21.0221 224.297 20.9535C224.27 20.885 224.257 20.8111 224.259 20.7369Z" fill="black"/>
<path d="M225.09 22.5537H224.545V29.6608H225.09V22.5537Z" fill="black"/>
<path d="M228.516 23.4937C228.855 23.1531 229.255 22.8871 229.694 22.7114C230.132 22.5357 230.6 22.4537 231.069 22.4704C231.939 22.4434 232.789 22.7464 233.463 23.3239L233.076 23.706C232.511 23.2217 231.798 22.9692 231.069 22.9955C230.669 22.981 230.27 23.0518 229.897 23.2034C229.523 23.3551 229.183 23.5846 228.896 23.878C228.345 24.4777 228.037 25.2787 228.037 26.1122C228.037 26.9457 228.345 27.7467 228.896 28.3464C229.183 28.6384 229.522 28.867 229.894 29.0186C230.266 29.1702 230.664 29.2417 231.063 29.2289C231.79 29.2485 232.501 28.9968 233.069 28.5185L233.456 28.9028C232.782 29.4795 231.932 29.7817 231.063 29.754C230.593 29.7698 230.125 29.6868 229.687 29.5099C229.248 29.3331 228.848 29.0658 228.509 28.724C227.859 28.026 227.495 27.0885 227.495 26.1122C227.495 25.1359 227.859 24.1984 228.509 23.5004L228.516 23.4937Z" fill="black"/>
<path d="M241.347 22.5535V23.0472H238.368V29.6605H237.823V23.0472H234.827V22.549L241.347 22.5535Z" fill="black"/>
<path d="M243.554 23.4938C244.243 22.8332 245.142 22.4668 246.075 22.4668C247.007 22.4668 247.907 22.8332 248.595 23.4938C249.234 24.1963 249.591 25.1306 249.591 26.1023C249.591 27.0739 249.234 28.0082 248.595 28.7107C247.906 29.3733 247.006 29.7407 246.072 29.7407C245.137 29.7407 244.237 29.3733 243.548 28.7107C242.907 28.0078 242.549 27.0722 242.549 26.0989C242.549 25.1256 242.907 24.19 243.548 23.4871L243.554 23.4938ZM243.097 26.1101C243.084 26.5238 243.152 26.936 243.297 27.3209C243.442 27.7058 243.662 28.0551 243.941 28.3471C244.221 28.6391 244.554 28.8675 244.922 29.0181C245.289 29.1687 245.682 29.2382 246.076 29.2223C246.469 29.2336 246.86 29.1613 247.226 29.0096C247.591 28.8579 247.924 28.6301 248.204 28.3398C248.748 27.7364 249.051 26.9368 249.051 26.1056C249.051 25.2744 248.748 24.4748 248.204 23.8714C247.924 23.5811 247.591 23.3533 247.226 23.2016C246.86 23.0499 246.469 22.9776 246.076 22.9889C245.682 22.9746 245.29 23.0453 244.923 23.1966C244.556 23.348 244.223 23.5766 243.944 23.8685C243.665 24.1604 243.445 24.5094 243.3 24.8938C243.154 25.2782 243.085 25.6899 243.097 26.1034V26.1101Z" fill="black"/>
<path d="M251.983 22.5528H252.528V24.2017C252.82 23.6668 253.247 23.2269 253.762 22.9304C254.306 22.6171 254.919 22.4577 255.539 22.4679C256.001 22.4559 256.461 22.5411 256.892 22.7186C257.322 22.896 257.714 23.1621 258.045 23.5011C258.376 23.8402 258.639 24.2454 258.819 24.6928C258.999 25.1402 259.091 25.6208 259.091 26.1064C259.091 26.5919 258.999 27.0725 258.819 27.52C258.639 27.9674 258.376 28.3725 258.045 28.7116C257.714 29.0506 257.322 29.3167 256.892 29.4942C256.461 29.6716 256.001 29.7568 255.539 29.7448C254.919 29.755 254.306 29.5957 253.762 29.2823C253.247 28.9858 252.82 28.5459 252.528 28.011V32.9263H251.983V22.5528ZM253.375 28.3372C253.654 28.6277 253.987 28.8557 254.353 29.0074C254.719 29.159 255.11 29.2313 255.503 29.2197C256.088 29.2096 256.658 29.0205 257.142 28.6757C257.627 28.3309 258.005 27.8452 258.231 27.2782C258.457 26.7111 258.52 26.0872 258.414 25.4829C258.307 24.8786 258.035 24.32 257.631 23.8755C257.051 23.3081 256.287 22.9926 255.494 22.9926C254.701 22.9926 253.938 23.3081 253.358 23.8755C252.813 24.4784 252.508 25.2782 252.508 26.1097C252.508 26.9412 252.813 27.741 253.358 28.3439L253.375 28.3372Z" fill="black"/>
<path d="M261.131 20.7368C261.129 20.6626 261.142 20.5888 261.169 20.5203C261.196 20.4518 261.237 20.39 261.289 20.3391C261.4 20.2381 261.543 20.1826 261.691 20.1826C261.838 20.1826 261.981 20.2381 262.093 20.3391C262.143 20.3912 262.182 20.4532 262.209 20.5215C262.236 20.5897 262.25 20.6629 262.25 20.7368C262.25 20.8107 262.236 20.8839 262.209 20.9522C262.182 21.0204 262.143 21.0824 262.093 21.1345C261.981 21.2355 261.838 21.291 261.691 21.291C261.543 21.291 261.4 21.2355 261.289 21.1345C261.237 21.0837 261.196 21.0219 261.169 20.9534C261.142 20.8848 261.129 20.811 261.131 20.7368Z" fill="black"/>
<path d="M261.967 22.5535H261.422V29.6605H261.967V22.5535Z" fill="black"/>
<path d="M263.558 20.3262C263.61 20.2767 263.672 20.2386 263.738 20.2141C263.804 20.1895 263.875 20.179 263.945 20.1832C264.017 20.1798 264.089 20.1912 264.156 20.2169C264.224 20.2426 264.286 20.282 264.339 20.3329C264.387 20.3818 264.425 20.4404 264.451 20.505C264.477 20.5697 264.49 20.6392 264.49 20.7094C264.49 20.7796 264.477 20.849 264.451 20.9137C264.425 20.9784 264.387 21.0369 264.339 21.0858C264.286 21.1367 264.224 21.1761 264.156 21.2018C264.089 21.2275 264.017 21.2389 263.945 21.2355C263.875 21.2397 263.804 21.2292 263.738 21.2047C263.672 21.1801 263.61 21.142 263.558 21.0925C263.465 20.9889 263.413 20.8518 263.413 20.7094C263.413 20.5669 263.465 20.4298 263.558 20.3262Z" fill="black"/>
<path d="M265.449 22.5537H264.904V29.6608H265.449V22.5537Z" fill="black"/>
<path d="M265.879 20.7097C265.878 20.6391 265.89 20.5689 265.916 20.5039C265.942 20.4388 265.981 20.3802 266.031 20.3321C266.14 20.2377 266.277 20.186 266.418 20.186C266.559 20.186 266.696 20.2377 266.805 20.3321C266.902 20.4339 266.956 20.5717 266.956 20.7153C266.956 20.8589 266.902 20.9967 266.805 21.0985C266.696 21.1929 266.559 21.2445 266.418 21.2445C266.277 21.2445 266.14 21.1929 266.031 21.0985C265.98 21.0492 265.94 20.9889 265.914 20.9217C265.888 20.8545 265.876 20.7822 265.879 20.7097Z" fill="black"/>
<path d="M176.557 38.9609H177.174L180.944 45.925L184.413 38.9609H185.015L180.814 47.4174C180.594 47.8767 180.272 48.2741 179.876 48.577C179.524 48.8472 179.099 48.9934 178.663 48.9948C178.38 48.9939 178.099 48.941 177.833 48.8384V48.3134C178.107 48.4144 178.394 48.4672 178.684 48.4698C179.344 48.4698 179.88 48.0624 180.291 47.2476L180.648 46.5215L176.557 38.9609Z" fill="black"/>
<path d="M185.972 48.9104V41.8145H186.516V45.0407H188.078L190.995 41.8145H191.67L188.525 45.2865L191.881 48.9104H191.178L188.08 45.5412H186.519V48.9104H185.972Z" fill="black"/>
<path d="M193.844 41.8136H194.388V43.4624C194.68 42.9268 195.107 42.4867 195.623 42.1911C196.167 41.8778 196.779 41.7184 197.399 41.7287C197.862 41.7166 198.322 41.8018 198.752 41.9793C199.182 42.1567 199.575 42.4228 199.906 42.7619C200.237 43.1009 200.5 43.5061 200.679 43.9535C200.859 44.4009 200.951 44.8815 200.951 45.3671C200.951 45.8526 200.859 46.3332 200.679 46.7807C200.5 47.2281 200.237 47.6333 199.906 47.9723C199.575 48.3114 199.182 48.5774 198.752 48.7549C198.322 48.9323 197.862 49.0175 197.399 49.0055C196.779 49.0164 196.167 48.8578 195.623 48.5453C195.107 48.2489 194.68 47.808 194.388 47.2717V52.187H193.844V41.8136ZM195.235 47.6002C195.654 48.0266 196.182 48.3143 196.755 48.4271C197.328 48.5399 197.92 48.473 198.457 48.2346C198.994 47.9962 199.452 47.597 199.774 47.0868C200.096 46.5766 200.268 45.9781 200.268 45.366C200.268 44.7538 200.096 44.1553 199.774 43.6451C199.452 43.1349 198.994 42.7357 198.457 42.4973C197.92 42.259 197.328 42.192 196.755 42.3048C196.182 42.4177 195.654 42.7053 195.235 43.1317C194.69 43.7349 194.387 44.5346 194.387 45.366C194.387 46.1973 194.69 46.997 195.235 47.6002Z" fill="black"/>
<path d="M203.698 45.4135C204.224 45.053 204.961 44.8728 205.907 44.8728H208.46V44.0774C208.467 43.8112 208.407 43.5478 208.288 43.3128C208.169 43.0779 207.993 42.8794 207.779 42.7369C207.326 42.4152 206.692 42.2521 205.879 42.2521C204.913 42.2521 204.153 42.5366 203.6 43.1055L203.226 42.7078C203.865 42.0465 204.749 41.7151 205.877 41.7136C206.851 41.7136 207.616 41.9222 208.171 42.3392C208.438 42.531 208.654 42.7905 208.799 43.0937C208.945 43.3968 209.015 43.7337 209.003 44.073V48.9056H208.458V47.9247C207.865 48.6352 206.943 48.9905 205.692 48.9905C204.841 48.9905 204.164 48.8087 203.662 48.4453C203.426 48.2751 203.234 48.0467 203.103 47.7801C202.972 47.5136 202.905 47.2172 202.908 46.917C202.912 46.6169 202.986 46.3223 203.124 46.0593C203.261 45.7963 203.459 45.573 203.698 45.409V45.4135ZM203.453 46.9216C203.451 47.1542 203.509 47.383 203.622 47.5834C203.734 47.7838 203.897 47.9482 204.092 48.0588C204.603 48.3569 205.184 48.4993 205.768 48.4699C206.45 48.501 207.125 48.3232 207.711 47.9583C208.213 47.6157 208.464 47.1845 208.464 46.6646V45.371H205.911C205.145 45.371 204.545 45.511 204.111 45.7911C203.913 45.8984 203.748 46.0606 203.632 46.2599C203.516 46.4592 203.454 46.688 203.453 46.9216Z" fill="black"/>
<path d="M210.581 39.5806C210.687 39.482 210.826 39.4307 210.968 39.4376C211.113 39.4317 211.254 39.4854 211.362 39.5873C211.411 39.6353 211.45 39.6938 211.476 39.7589C211.502 39.824 211.515 39.8943 211.513 39.9649C211.515 40.0352 211.503 40.1052 211.477 40.1701C211.45 40.2349 211.411 40.293 211.362 40.3403C211.309 40.3911 211.247 40.4305 211.179 40.4562C211.111 40.4819 211.04 40.4934 210.968 40.4899C210.826 40.4979 210.687 40.4465 210.581 40.347C210.532 40.2976 210.495 40.238 210.47 40.1721C210.445 40.1062 210.435 40.0356 210.438 39.9649C210.435 39.8939 210.445 39.8229 210.47 39.7566C210.495 39.6904 210.532 39.6304 210.581 39.5806Z" fill="black"/>
<path d="M212.473 41.8029H211.929V48.9099H212.473V41.8029Z" fill="black"/>
<path d="M212.904 39.9603C212.902 39.8899 212.914 39.8198 212.939 39.7547C212.965 39.6896 213.004 39.631 213.053 39.5827C213.161 39.4807 213.303 39.427 213.448 39.433C213.587 39.4284 213.723 39.4795 213.827 39.576C213.924 39.6778 213.978 39.8155 213.978 39.9592C213.978 40.1028 213.924 40.2406 213.827 40.3423C213.723 40.4396 213.587 40.4909 213.448 40.4853C213.303 40.4923 213.16 40.4385 213.053 40.3356C213.004 40.2879 212.965 40.2296 212.939 40.1649C212.914 40.1002 212.901 40.0304 212.904 39.9603Z" fill="black"/>
<path d="M215.957 41.8145V44.9848H221.132V41.8145H221.676V48.9215H221.132V45.4853H215.957V48.9104H215.412V41.8145H215.957Z" fill="black"/>
<path d="M224.604 48.9104V41.8145H225.148V48.1127L230.395 41.8145H230.94V48.9215H230.395V42.6143L225.148 48.9104H224.604Z" fill="black"/>
</g>
</g>
<defs>
<clipPath id="clip0_9521_19043">
<rect width="278.193" height="73.4556" fill="white"/>
</clipPath>
<clipPath id="clip1_9521_19043">
<rect width="278.193" height="73.4556" fill="white"/>
</clipPath>
</defs>
</svg>
